<?xml version="1.0" standalone="no"?>
<!DOCTYPE svg PUBLIC "-//W3C//DTD SVG 20010904//EN"
 "http://www.w3.org/TR/2001/REC-SVG-20010904/DTD/svg10.dtd">
<svg version="1.0" xmlns="http://www.w3.org/2000/svg"
 width="115" height="115" viewBox="0 0 1409 1409"
 preserveAspectRatio="xMidYMid meet">

<g transform="translate(0.000000,1409.000000) scale(0.100000,-0.100000)"
fill="#000000" stroke="none">
<path d="M7525 13264 c-117 -23 -125 -26 -150 -55 -14 -17 -25 -43 -25 -59 0
-58 78 -91 265 -110 173 -18 274 -45 400 -108 110 -55 183 -109 280 -206 145
-146 238 -305 291 -497 34 -126 44 -383 20 -531 -17 -104 -60 -250 -102 -345
-66 -148 -227 -394 -495 -753 -286 -382 -405 -566 -503 -772 -107 -223 -136
-343 -143 -591 -8 -249 16 -372 113 -585 146 -321 468 -604 822 -722 169 -56
279 -73 482 -74 102 -1 197 2 212 6 47 14 88 56 88 92 0 64 -76 98 -267 120
-294 35 -478 120 -669 310 -109 109 -163 182 -223 303 -145 291 -148 708 -7
1041 72 169 236 420 541 827 272 363 354 486 449 678 128 259 159 377 172 652
7 154 -8 256 -62 428 -145 459 -560 820 -1059 921 -126 25 -367 42 -430 30z"/>
<path d="M5704 13246 c-17 -8 -45 -31 -62 -52 l-32 -39 0 -2595 c0 -2560 0
-2595 20 -2627 28 -46 91 -83 140 -83 57 0 92 21 129 76 l31 48 -2 2592 -3
2593 -21 28 c-25 35 -98 73 -139 73 -16 -1 -44 -7 -61 -14z"/>
<path d="M5664 6735 c-116 -37 -241 -140 -294 -244 -48 -95 -66 -254 -40 -353
34 -127 139 -252 260 -311 281 -137 596 9 686 318 71 246 -93 522 -351 591
-62 17 -206 16 -261 -1z"/>
<path d="M8165 6727 c-202 -75 -325 -252 -325 -467 0 -189 101 -351 272 -434
174 -85 361 -65 510 55 107 86 154 164 182 302 48 234 -108 478 -353 553 -73
22 -214 17 -286 -9z"/>
<path d="M3316 4667 c-22 -16 -35 -75 -36 -161 l0 -68 96 -115 c173 -206 329
-360 534 -524 610 -488 1426 -831 2315 -974 760 -121 1689 -110 2445 30 1093
203 1970 683 2617 1433 l123 143 0 103 c0 113 -7 127 -63 141 -31 8 -52 -7
-222 -160 -622 -560 -1449 -925 -2455 -1084 -836 -133 -1865 -131 -2680 4
-931 155 -1681 468 -2267 947 -55 46 -156 131 -222 191 -123 109 -148 121
-185 94z"/>
</g>
</svg>
